<?xml version="1.0" encoding="UTF-8"?> <svg xmlns="http://www.w3.org/2000/svg" width="117" height="25" fill="none"><path d="M18.561 0H6.19A6.197 6.197 0 0 0 0 6.19v12.372a6.197 6.197 0 0 0 6.19 6.19h12.372a6.197 6.197 0 0 0 6.19-6.19V6.19A6.197 6.197 0 0 0 18.562 0zm1.549 18.782a1.346 1.346 0 0 1-1.328 1.327H5.969a1.345 1.345 0 0 1-1.328-1.327V5.968A1.347 1.347 0 0 1 5.969 4.64h12.813a1.346 1.346 0 0 1 1.328 1.327v12.815zM46.405 0h-18.12a.442.442 0 0 0-.44.443v23.865a.443.443 0 0 0 .44.443h3.759a.442.442 0 0 0 .441-.443v-9.645h14.14a1.346 1.346 0 0 1 1.326 1.33v8.315a.444.444 0 0 0 .444.443h3.76a.443.443 0 0 0 .441-.443v-8.094c0-1.417-1.139-2.715-1.94-3.759.801-1.043 1.94-2.346 1.94-3.759V6.19A6.197 6.197 0 0 0 46.406 0zm-13.92 4.64h14.14a1.343 1.343 0 0 1 1.326 1.327v2.73a1.344 1.344 0 0 1-1.326 1.327h-14.14V4.64zM74.249 0H56.127a.44.44 0 0 0-.441.443v23.865a.44.44 0 0 0 .441.442H74.25a6.195 6.195 0 0 0 6.19-6.189v-2.35c0-1.416-1.14-2.715-1.939-3.76.8-1.042 1.939-2.344 1.939-3.757V6.19A6.197 6.197 0 0 0 74.249 0zm.218 4.64a1.346 1.346 0 0 1 1.326 1.328v2.727a1.346 1.346 0 0 1-1.324 1.328H60.328V4.641l14.14-.001zm1.326 14.142a1.346 1.346 0 0 1-1.328 1.327H60.328v-5.445h14.14a1.347 1.347 0 0 1 1.325 1.328v2.79zm13.706 1.332a1.345 1.345 0 0 1-1.328-1.327V.443A.441.441 0 0 0 87.729 0h-3.755a.443.443 0 0 0-.442.443V18.56a6.196 6.196 0 0 0 6.192 6.189h18.116a.442.442 0 0 0 .443-.442v-3.752a.442.442 0 0 0-.443-.442H89.499zm21.995 2.335a2.539 2.539 0 0 1 5.077 0c0 1.448-1.089 2.551-2.536 2.551a2.498 2.498 0 0 1-2.541-2.551zm4.623 0c0-1.208-.889-2.1-2.085-2.1s-2.087.892-2.087 2.1c0 1.208.893 2.107 2.089 2.107s2.083-.9 2.083-2.107zm-2.975 1.399a.083.083 0 0 1-.068-.024.081.081 0 0 1-.024-.07v-2.633a.084.084 0 0 1 .024-.07.085.085 0 0 1 .068-.025h1.063c.612 0 .97.307.97.837a.79.79 0 0 1-.557.784l.57 1.103c.027.053 0 .093-.052.093h-.373a.12.12 0 0 1-.076-.025.122.122 0 0 1-.042-.068l-.531-1.035h-.507c-.039 0-.052.012-.052.053v.983a.07.07 0 0 1-.004.038.082.082 0 0 1-.052.052.084.084 0 0 1-.038.003l-.319.004zm1.528-1.98c0-.253-.145-.385-.465-.385h-.598c-.039 0-.052.012-.052.053v.677c0 .007.001.014.003.02a.047.047 0 0 0 .029.03.043.043 0 0 0 .02.003h.598c.319-.004.465-.149.465-.403v.005z" fill="#EA2227"></path></svg> 