<?xml version="1.0" encoding="UTF-8"?> <svg xmlns="http://www.w3.org/2000/svg" width="380" height="140" fill="none"><g clip-path="url(#clip0)" fill="#2E3C43"><path d="M113.026 79.694a6.98 6.98 0 0 1-3.062-3.214.937.937 0 0 1-.116-.47.891.891 0 0 1 .303-.69c.23-.197.525-.297.825-.28.228 0 .451.066.645.188.203.128.361.317.451.542a4.924 4.924 0 0 0 2.223 2.125 7.715 7.715 0 0 0 3.616.808 5.953 5.953 0 0 0 3.828-1.16 3.936 3.936 0 0 0 1.45-3.26 4.102 4.102 0 0 0-1.347-3.109 7.154 7.154 0 0 0-4.047-1.617 9.484 9.484 0 0 1-5.298-2.131 5.38 5.38 0 0 1-1.437-1.885 5.44 5.44 0 0 1-.496-2.326 5.25 5.25 0 0 1 .941-3.096 6.028 6.028 0 0 1 2.655-2.002 9.48 9.48 0 0 1 3.789-.717 7.8 7.8 0 0 1 4.035 1.03 7.657 7.657 0 0 1 2.726 2.673c.134.21.205.454.206.704a.996.996 0 0 1-.522.88c-.162.08-.341.12-.522.117a1.16 1.16 0 0 1-.593-.163 1.258 1.258 0 0 1-.451-.456 5.51 5.51 0 0 0-2.103-1.976 5.433 5.433 0 0 0-2.801-.632 6.171 6.171 0 0 0-3.764.965c-.445.322-.804.75-1.043 1.248a3.335 3.335 0 0 0-.323 1.6c0 2.291 1.828 3.68 5.484 4.166 2.397.352 4.187 1.095 5.368 2.23a5.907 5.907 0 0 1 1.361 2.053c.306.775.446 1.605.412 2.438a6.163 6.163 0 0 1-.949 3.492 6.057 6.057 0 0 1-2.738 2.335 9.164 9.164 0 0 1-3.828.776 9.87 9.87 0 0 1-4.878-1.186zm39.48-21.706a1.112 1.112 0 0 1 .322.822v20.637a1.127 1.127 0 0 1-.322.809 1.048 1.048 0 0 1-.786.339 1.109 1.109 0 0 1-1.16-1.122V62.831l-8.043 16.675a1.108 1.108 0 0 1-.986.56 1.08 1.08 0 0 1-1.044-.704L132.424 63.1v16.348a1.127 1.127 0 0 1-.322.809 1.072 1.072 0 0 1-.812.339 1.134 1.134 0 0 1-.8-.338 1.154 1.154 0 0 1-.334-.81V58.81a1.085 1.085 0 0 1 .335-.822 1.166 1.166 0 0 1 1.811.261l9.287 18.67 9.113-18.67a1.119 1.119 0 0 1 1.018-.587 1.057 1.057 0 0 1 .786.326zm23.246 21.459a1.155 1.155 0 0 1-.334.81c-.212.214-.5.336-.8.337-.23.011-.457-.05-.65-.177a1.109 1.109 0 0 1-.426-.526l-1.934-4.759h-11.233l-1.933 4.758a.998.998 0 0 1-.397.542.98.98 0 0 1-.647.162 1.021 1.021 0 0 1-.799-.338 1.163 1.163 0 0 1-.303-.809 1.305 1.305 0 0 1 .09-.502l8.533-20.487c.073-.236.22-.442.419-.585a1.11 1.11 0 0 1 .683-.21 1.076 1.076 0 0 1 1.076.795l8.539 20.52a.938.938 0 0 1 .116.47zm-14.545-6.284h9.667l-4.873-11.785-4.794 11.785zm32.223 6.467a.87.87 0 0 1-.316.704c-.241.187-.54.282-.844.267a1.06 1.06 0 0 1-.58-.15 1.295 1.295 0 0 1-.406-.443l-5.201-8.402h-4.788v7.822a1.164 1.164 0 0 1-.3.866 1.134 1.134 0 0 1-.831.368 1.122 1.122 0 0 1-.832-.368 1.145 1.145 0 0 1-.299-.866V58.81a1.11 1.11 0 0 1 .693-1.071c.14-.056.29-.082.441-.076h5.426a7.8 7.8 0 0 1 3.77.893 6.58 6.58 0 0 1 2.578 2.51 7.14 7.14 0 0 1 .941 3.67 6.642 6.642 0 0 1-1.177 3.951 6.518 6.518 0 0 1-3.27 2.469l4.757 7.692c.146.235.228.505.238.782zm-7.863-10.215a5.675 5.675 0 0 0 2.63-.6 4.526 4.526 0 0 0 1.83-1.662 4.48 4.48 0 0 0 .645-2.405 4.904 4.904 0 0 0-.645-2.523 4.528 4.528 0 0 0-1.811-1.733 5.54 5.54 0 0 0-2.642-.62h-4.292v9.537l4.285.006zm26.779-11.453a1.053 1.053 0 0 1 .29.763 1.006 1.006 0 0 1-.29.736 1.012 1.012 0 0 1-.754.293h-6.903v19.693a1.123 1.123 0 0 1-.303.834 1.133 1.133 0 0 1-1.735-.179 1.164 1.164 0 0 1-.198-.629V59.748h-6.909a1.008 1.008 0 0 1-.754-.293 1.006 1.006 0 0 1-.29-.737 1.015 1.015 0 0 1 .637-.989.989.989 0 0 1 .407-.067h16.048a1.002 1.002 0 0 1 .754.3zm12.463 22.32a1.098 1.098 0 0 1-.335-.809V58.81a1.086 1.086 0 0 1 .335-.822 1.11 1.11 0 0 1 .799-.326h13.612a1.089 1.089 0 0 1 .812.326 1.084 1.084 0 0 1 .322.795 1.046 1.046 0 0 1-.322.776 1.134 1.134 0 0 1-.812.307h-12.477v8.102h9.087a1.089 1.089 0 0 1 .812.326 1.084 1.084 0 0 1-.032 1.558 1.118 1.118 0 0 1-.8.32h-9.087v8.22H239.2a1.12 1.12 0 0 1 .812.306 1.038 1.038 0 0 1 .323.776 1.083 1.083 0 0 1-.323.788 1.09 1.09 0 0 1-.812.326h-13.592a1.07 1.07 0 0 1-.799-.306zm20.069 0a1.11 1.11 0 0 1-.315-.822V58.81c0-.236.071-.466.205-.659s.323-.34.542-.42a1.122 1.122 0 0 1 1.257.342l13.888 18.441V58.81a1.104 1.104 0 0 1 .335-.821 1.167 1.167 0 0 1 1.612 0 1.111 1.111 0 0 1 .315.82v20.638a1.142 1.142 0 0 1-.328.835 1.087 1.087 0 0 1-.812.339.946.946 0 0 1-.845-.378l-13.907-18.467v17.671a1.14 1.14 0 0 1-.686 1.066c-.14.058-.291.086-.442.082a1.082 1.082 0 0 1-.819-.313zm40.918-10.828a1.075 1.075 0 0 1 .316.808v7.275a1.128 1.128 0 0 1-.316.821c-1.8 1.683-4.163 2.523-7.089 2.523a10.618 10.618 0 0 1-5.659-1.584 11.976 11.976 0 0 1-5.247-7.19 12.106 12.106 0 0 1 1.129-8.865 11.53 11.53 0 0 1 4.093-4.289 10.66 10.66 0 0 1 5.69-1.584c1.293-.016 2.58.194 3.803.62a10.803 10.803 0 0 1 3.306 1.955.863.863 0 0 1 .2 1.102.652.652 0 0 1-.316.28.587.587 0 0 1-.258.339.786.786 0 0 1-.438.13 1.04 1.04 0 0 1-.729-.293 7.221 7.221 0 0 0-2.468-1.5 9.365 9.365 0 0 0-3.106-.469 8.39 8.39 0 0 0-4.512 1.304 9.592 9.592 0 0 0-3.325 3.507 9.565 9.565 0 0 0-1.237 4.758 9.78 9.78 0 0 0 1.218 4.811 9.361 9.361 0 0 0 3.306 3.494 8.498 8.498 0 0 0 4.556 1.304 8.95 8.95 0 0 0 5.201-1.689v-5.866h-4.511a1.151 1.151 0 0 1-.812-.294.95.95 0 0 1-.322-.736.9.9 0 0 1 .322-.717c.227-.192.516-.292.812-.28h5.6c.297-.001.581.116.793.325zm5.414 10.828a1.087 1.087 0 0 1-.335-.808V58.81a1.086 1.086 0 0 1 .335-.822 1.116 1.116 0 0 1 1.247-.264 1.13 1.13 0 0 1 .686 1.086v20.637a1.14 1.14 0 0 1-.316.809 1.131 1.131 0 0 1-1.242.25 1.142 1.142 0 0 1-.369-.25l-.006.026zm8.049 0a1.128 1.128 0 0 1-.316-.822V58.81c0-.236.072-.466.205-.659a1.122 1.122 0 0 1 1.799-.078l13.876 18.434V58.81a1.102 1.102 0 0 1 .335-.822 1.167 1.167 0 0 1 1.611 0 1.114 1.114 0 0 1 .316.822v20.637a1.14 1.14 0 0 1-.686 1.065c-.14.058-.291.087-.442.083a.944.944 0 0 1-.844-.379l-13.908-18.44v17.671a1.122 1.122 0 0 1-.316.809 1.072 1.072 0 0 1-.812.339 1.085 1.085 0 0 1-.818-.313zm23.961 0a1.113 1.113 0 0 1-.335-.809V58.81a1.102 1.102 0 0 1 .335-.822 1.11 1.11 0 0 1 .8-.326h13.611a1.086 1.086 0 0 1 .812.326 1.084 1.084 0 0 1 .322.795 1.032 1.032 0 0 1-.322.776 1.134 1.134 0 0 1-.812.307h-12.484v8.102h9.087a1.09 1.09 0 0 1 .813.326 1.1 1.1 0 0 1 .315.795 1.059 1.059 0 0 1-.335.796 1.118 1.118 0 0 1-.799.319h-9.087v8.187h12.477a1.113 1.113 0 0 1 .812.307 1.033 1.033 0 0 1 .322.775 1.09 1.09 0 0 1-1.128 1.135H324.02a1.067 1.067 0 0 1-.8-.326zm21.822-.587a6.974 6.974 0 0 1-3.061-3.214.936.936 0 0 1-.116-.469.885.885 0 0 1 .076-.38.88.88 0 0 1 .227-.311c.23-.196.525-.296.825-.28.228 0 .451.066.644.189.204.127.362.316.451.54a4.922 4.922 0 0 0 2.217 2.126 7.722 7.722 0 0 0 3.616.808 5.95 5.95 0 0 0 3.834-1.16 3.898 3.898 0 0 0 1.115-1.452 3.949 3.949 0 0 0 .335-1.807 4.09 4.09 0 0 0-1.353-3.11 7.154 7.154 0 0 0-4.047-1.616 9.48 9.48 0 0 1-5.298-2.132 5.393 5.393 0 0 1-1.437-1.884 5.454 5.454 0 0 1-.496-2.327 5.256 5.256 0 0 1 .941-3.096 6.034 6.034 0 0 1 2.655-2.001 9.476 9.476 0 0 1 3.783-.717 7.79 7.79 0 0 1 4.034 1.03 7.65 7.65 0 0 1 2.727 2.672c.131.21.201.455.199.704a.988.988 0 0 1-.522.88c-.162.08-.341.12-.522.117a1.16 1.16 0 0 1-.593-.163 1.265 1.265 0 0 1-.451-.456 5.51 5.51 0 0 0-2.103-1.975 5.44 5.44 0 0 0-2.801-.632 6.17 6.17 0 0 0-3.751.965 3.29 3.29 0 0 0-1.042 1.248 3.335 3.335 0 0 0-.324 1.6c0 2.29 1.828 3.679 5.484 4.166 2.398.351 4.187 1.095 5.369 2.229a5.935 5.935 0 0 1 1.772 4.491 6.163 6.163 0 0 1-.949 3.493 6.06 6.06 0 0 1-2.737 2.335 9.178 9.178 0 0 1-3.835.775 9.882 9.882 0 0 1-4.866-1.186zM235.23 99.316a.556.556 0 0 1 .091.424.734.734 0 0 1-.245.423.64.64 0 0 1-.432.189.507.507 0 0 1-.209-.055.505.505 0 0 1-.165-.14l-.374-.496a5.119 5.119 0 0 1-2.771.796 3.907 3.907 0 0 1-2.23-.652 3.259 3.259 0 0 1-1.289-1.721 5.02 5.02 0 0 1-.116-2.497 6.221 6.221 0 0 1 1.018-2.49 5.43 5.43 0 0 1 1.902-1.701 5.05 5.05 0 0 1 2.449-.606 3.893 3.893 0 0 1 2.217.651 3.261 3.261 0 0 1 1.289 1.715c.253.805.295 1.663.122 2.49a6.462 6.462 0 0 1-.586 1.766 5.749 5.749 0 0 1-1.025 1.441l.354.463zm-1.991-.522l-.877-1.16a.589.589 0 0 1-.103-.437.739.739 0 0 1 .258-.423.64.64 0 0 1 .445-.19.414.414 0 0 1 .361.196l.902 1.206a4.68 4.68 0 0 0 1.141-2.347 3.781 3.781 0 0 0-.091-1.877 2.56 2.56 0 0 0-.953-1.304 2.787 2.787 0 0 0-1.65-.489 3.647 3.647 0 0 0-1.824.476 4.272 4.272 0 0 0-1.431 1.304 4.722 4.722 0 0 0-.767 1.877 3.793 3.793 0 0 0 .09 1.878c.175.527.511.983.961 1.303.482.336 1.057.51 1.643.496a3.593 3.593 0 0 0 1.895-.509zm6.922 1.337a2.503 2.503 0 0 1-1.096-1.193 2.948 2.948 0 0 1-.155-1.734l1.012-5.62a.755.755 0 0 1 .252-.449.638.638 0 0 1 .451-.176.462.462 0 0 1 .393.176.546.546 0 0 1 .084.45l-1.019 5.645c-.08.383-.04.782.116 1.14.159.34.424.618.754.79.389.199.821.297 1.257.286.445.002.884-.093 1.289-.28a2.76 2.76 0 0 0 1.012-.789 2.52 2.52 0 0 0 .515-1.14l1.012-5.62a.755.755 0 0 1 .252-.45.638.638 0 0 1 .451-.175.446.446 0 0 1 .38.176.563.563 0 0 1 .084.45l-.999 5.612a3.882 3.882 0 0 1-.774 1.727 4.089 4.089 0 0 1-1.495 1.187 4.457 4.457 0 0 1-1.933.423 3.734 3.734 0 0 1-1.843-.436zm15.022-.294a.747.747 0 0 1-.251.431.647.647 0 0 1-.452.176.488.488 0 0 1-.302-.105.45.45 0 0 1-.168-.28l-.329-1.688h-4.066l-.948 1.681a.837.837 0 0 1-.277.281.645.645 0 0 1-.335.104.436.436 0 0 1-.38-.189.564.564 0 0 1-.084-.437.936.936 0 0 1 .11-.274l4.64-8.063a.727.727 0 0 1 .644-.417.44.44 0 0 1 .327.11.458.458 0 0 1 .15.314l1.727 8.109a.736.736 0 0 1-.006.247zm-4.982-2.51h3.274l-.844-4.288-2.43 4.289zm7.212 2.921a.558.558 0 0 1-.084-.443l1.47-8.148a.756.756 0 0 1 .251-.444.642.642 0 0 1 .438-.182.452.452 0 0 1 .387.182.532.532 0 0 1 .093.212.532.532 0 0 1-.003.232l-1.36 7.529h4.099a.463.463 0 0 1 .387.182.532.532 0 0 1 .093.212.532.532 0 0 1-.003.231.758.758 0 0 1-.251.444.647.647 0 0 1-.451.176h-4.686a.444.444 0 0 1-.38-.183zm8.12.026a.561.561 0 0 1-.093-.212.563.563 0 0 1 .003-.231l1.457-8.148a.748.748 0 0 1 .251-.45.64.64 0 0 1 .451-.176.458.458 0 0 1 .484.391.56.56 0 0 1-.007.235l-1.457 8.154a.78.78 0 0 1-.244.444.646.646 0 0 1-.458.176.462.462 0 0 1-.387-.183zm11.781-9.022a.504.504 0 0 1 .078.418.705.705 0 0 1-.226.417.603.603 0 0 1-.419.163h-2.436l-1.373 7.587a.758.758 0 0 1-.251.444.647.647 0 0 1-.451.176.456.456 0 0 1-.387-.183.544.544 0 0 1-.09-.443l1.373-7.62h-2.443a.426.426 0 0 1-.361-.163.52.52 0 0 1-.077-.418.71.71 0 0 1 .225-.417.642.642 0 0 1 .419-.163h6.058a.421.421 0 0 1 .361.202zm8.552.039a.526.526 0 0 1 .071.411.933.933 0 0 1-.187.398l-3.944 4.98-.509 2.803a.755.755 0 0 1-.251.443.638.638 0 0 1-.451.176.443.443 0 0 1-.374-.182.532.532 0 0 1-.093-.212.532.532 0 0 1 .003-.232l.509-2.803-2.14-5a.669.669 0 0 1 .2-.808.685.685 0 0 1 .444-.169c.1-.006.198.024.278.085a.76.76 0 0 1 .18.267l1.856 4.478 3.487-4.504a.705.705 0 0 1 .573-.3.363.363 0 0 1 .348.17zm15.03.072a.562.562 0 0 1 .093.212.565.565 0 0 1-.003.231l-1.47 8.149a.745.745 0 0 1-.257.443.643.643 0 0 1-.445.176.462.462 0 0 1-.387-.183.564.564 0 0 1-.093-.211.567.567 0 0 1 .003-.232l1.076-5.977-3.809 5.925a.721.721 0 0 1-.567.313.447.447 0 0 1-.31-.096.46.46 0 0 1-.167-.282l-1.662-5.776-1.057 5.867a.757.757 0 0 1-.252.443.636.636 0 0 1-.451.176.444.444 0 0 1-.215-.043.444.444 0 0 1-.171-.139.548.548 0 0 1-.091-.444l1.47-8.148a.756.756 0 0 1 .251-.443.64.64 0 0 1 .451-.176.454.454 0 0 1 .287.09.46.46 0 0 1 .171.249l2.069 7.17 4.562-7.17a.71.71 0 0 1 .581-.332.455.455 0 0 1 .393.208zm8.397 8.631a.747.747 0 0 1-.251.43.638.638 0 0 1-.451.176.49.49 0 0 1-.303-.104.45.45 0 0 1-.168-.281l-.335-1.681h-4.066l-.948 1.681a.837.837 0 0 1-.277.281.645.645 0 0 1-.335.104.44.44 0 0 1-.38-.189.571.571 0 0 1-.084-.437.936.936 0 0 1 .11-.274l4.64-8.063a.728.728 0 0 1 .644-.417.44.44 0 0 1 .327.11.455.455 0 0 1 .15.313l1.727 8.11a.698.698 0 0 1 0 .24zm-5.014-2.51h3.274l-.844-4.29-2.43 4.29zm13.83-6.121a.505.505 0 0 1 .078.417.705.705 0 0 1-.226.418.603.603 0 0 1-.419.163h-2.436l-1.373 7.62a.755.755 0 0 1-.251.443.638.638 0 0 1-.451.176.456.456 0 0 1-.387-.183.546.546 0 0 1-.09-.443l1.392-7.6h-2.442a.424.424 0 0 1-.445-.363.53.53 0 0 1 .006-.218.717.717 0 0 1 .226-.417.64.64 0 0 1 .419-.163h6.058a.423.423 0 0 1 .341.15zm8.327.059a.52.52 0 0 1 .077.417.709.709 0 0 1-.225.417.603.603 0 0 1-.419.163h-2.436l-1.373 7.62a.758.758 0 0 1-.251.444.65.65 0 0 1-.452.176.456.456 0 0 1-.386-.183.546.546 0 0 1-.09-.443l1.372-7.62h-2.442a.425.425 0 0 1-.445-.363.53.53 0 0 1 .006-.218.717.717 0 0 1 .226-.417.642.642 0 0 1 .419-.163h6.058a.42.42 0 0 1 .361.17zm.844 9.067a.561.561 0 0 1-.093-.212.562.562 0 0 1 .003-.231l1.47-8.148a.748.748 0 0 1 .251-.45.64.64 0 0 1 .451-.176h5.117a.463.463 0 0 1 .387.163.515.515 0 0 1 .084.43.657.657 0 0 1-.232.41.643.643 0 0 1-.445.157h-4.511l-.529 2.927h3.223a.45.45 0 0 1 .381.168.473.473 0 0 1 .089.412.693.693 0 0 1-.683.574h-3.223l-.541 3.011h4.511a.481.481 0 0 1 .394.157.486.486 0 0 1 .083.41.708.708 0 0 1-.238.424.642.642 0 0 1-.451.163h-5.117a.448.448 0 0 1-.381-.189zm14.52-.339a.653.653 0 0 1-.225.404.638.638 0 0 1-.445.163.45.45 0 0 1-.278-.073.47.47 0 0 1-.18-.227l-1.347-3.33h-1.649l-.542 2.998a.776.776 0 0 1-.245.443.633.633 0 0 1-.457.176.452.452 0 0 1-.387-.182.534.534 0 0 1-.09-.444l1.469-8.148a.755.755 0 0 1 .252-.45.639.639 0 0 1 .451-.175h2.036a2.65 2.65 0 0 1 1.431.378c.391.242.689.612.844 1.05.168.496.199 1.03.09 1.544a3.322 3.322 0 0 1-.683 1.512 3.322 3.322 0 0 1-1.289.998l1.199 2.966a.702.702 0 0 1 .045.397zm-2.462-4.224c.491.01.97-.154 1.354-.463a1.91 1.91 0 0 0 .715-1.192 1.541 1.541 0 0 0-.264-1.304 1.439 1.439 0 0 0-1.173-.509h-1.45l-.645 3.468h1.463zm5.395 4.394a2.172 2.172 0 0 1-.993-1.389.652.652 0 0 1 0-.24.57.57 0 0 1 .181-.32.782.782 0 0 1 .373-.183h.116a.514.514 0 0 1 .323.117.543.543 0 0 1 .187.307 1.33 1.33 0 0 0 .644.795c.391.23.837.344 1.289.333a2.778 2.778 0 0 0 1.514-.411 1.62 1.62 0 0 0 .793-1.134 1.368 1.368 0 0 0-.283-1.174 2.07 2.07 0 0 0-1.412-.6 3.14 3.14 0 0 1-2.049-.88 2.005 2.005 0 0 1-.477-1.825c.088-.487.311-.94.644-1.303.358-.381.8-.671 1.289-.848a4.633 4.633 0 0 1 1.669-.287 2.415 2.415 0 0 1 1.515.393c.449.296.788.733.967 1.244a.779.779 0 0 1 .058.436.659.659 0 0 1-.303.43.591.591 0 0 1-.31.085.516.516 0 0 1-.302-.09.47.47 0 0 1-.181-.249 1.738 1.738 0 0 0-.644-.827 1.919 1.919 0 0 0-1.109-.287 2.787 2.787 0 0 0-1.456.352 1.429 1.429 0 0 0-.716 1.023 1.138 1.138 0 0 0 .284 1.05 2.647 2.647 0 0 0 1.598.56 2.855 2.855 0 0 1 1.934.88 2.233 2.233 0 0 1 .399 1.923 2.97 2.97 0 0 1-.709 1.487c-.367.412-.826.73-1.34.925a4.428 4.428 0 0 1-1.624.3 3.388 3.388 0 0 1-1.869-.593zm7.431.378a.712.712 0 0 1-.129-.587c.042-.232.163-.441.341-.593a.874.874 0 0 1 .593-.248.599.599 0 0 1 .503.248.733.733 0 0 1 .122.6 1.017 1.017 0 0 1-.328.58.866.866 0 0 1-.6.247.594.594 0 0 1-.502-.247z"></path><path opacity=".3" d="M57.381 49.475L40.458 60.237 57.865 70.51l16.93-10.52-17.414-10.515z"></path><path opacity=".4" d="M57.865 89.831L40.458 78.34V60.237L57.865 70.51v19.321z"></path><path opacity=".6" d="M75.04 79.265l-.245-19.276-16.93 10.521v19.321L75.04 79.265z"></path><path d="M57.865 98.534a27.93 27.93 0 0 1-15.64-4.802 28.412 28.412 0 0 1-10.367-12.78 28.783 28.783 0 0 1-1.603-16.45 28.583 28.583 0 0 1 7.702-14.581 28.06 28.06 0 0 1 14.412-7.797 27.86 27.86 0 0 1 16.266 1.613 28.228 28.228 0 0 1 12.64 10.481 28.712 28.712 0 0 1 4.753 15.816c-.003 7.555-2.97 14.8-8.252 20.144-5.28 5.343-12.441 8.349-19.911 8.356zm0-55.343a26.345 26.345 0 0 0-14.757 4.529 26.8 26.8 0 0 0-9.782 12.059 27.148 27.148 0 0 0-1.508 15.523 26.959 26.959 0 0 0 7.274 13.754 26.467 26.467 0 0 0 13.604 7.347 26.28 26.28 0 0 0 15.346-1.537c4.853-2.036 9-5.482 11.915-9.902a27.083 27.083 0 0 0 4.467-14.93c-.009-7.121-2.81-13.95-7.789-18.985-4.979-5.036-11.729-7.869-18.77-7.877v.02z"></path><path d="M57.627 106.069a35.337 35.337 0 0 1-19.794-6.073 35.95 35.95 0 0 1-13.121-16.172 36.418 36.418 0 0 1-2.027-20.82 36.163 36.163 0 0 1 9.75-18.45 35.504 35.504 0 0 1 18.241-9.862 35.252 35.252 0 0 1 20.584 2.051 35.717 35.717 0 0 1 15.99 13.272 36.329 36.329 0 0 1 6.004 20.02c-.01 9.553-3.767 18.713-10.446 25.468-6.68 6.756-15.735 10.556-25.18 10.566zm0-70.446a33.748 33.748 0 0 0-18.902 5.8 34.33 34.33 0 0 0-12.53 15.443 34.777 34.777 0 0 0-1.936 19.882 34.535 34.535 0 0 0 9.31 17.619 33.906 33.906 0 0 0 17.42 9.418c6.6 1.327 13.44.646 19.657-1.959a34.105 34.105 0 0 0 15.269-12.674 34.692 34.692 0 0 0 5.733-19.118c-.008-9.124-3.595-17.872-9.974-24.325-6.378-6.452-15.026-10.082-24.048-10.092v.006z"></path><path d="M50.672 42.838l-.878 1.358L74.55 60.591l.879-1.358-24.757-16.395zm-9.228 35.5l-.854 1.375 26.783 17.02.854-1.375-26.784-17.02z"></path><path d="M41.814 60.585l-1.599.004.087 31.198 1.599-.005-.087-31.197zm32.911-11.704l-.498 30.366 1.605.027.497-30.366-1.604-.027z"></path><path d="M58.449 48.694L30.085 66.698l.849 1.369 28.364-18.004-.85-1.37zM84.53 73.309L58.455 89.08l.82 1.388L85.35 74.695l-.82-1.387z"></path></g><defs><clipPath id="clip0"><path fill="#fff" transform="translate(22 34)" d="M0 0h335.448v72.069H0z"></path></clipPath></defs></svg> 