<?xml version="1.0" encoding="UTF-8"?> <!-- Generator: Adobe Illustrator 16.0.3, SVG Export Plug-In . SVG Version: 6.00 Build 0) --> <svg xmlns="http://www.w3.org/2000/svg" xmlns:xlink="http://www.w3.org/1999/xlink" id="Layer_1" x="0px" y="0px" width="225.436px" height="52.167px" viewBox="0 0 225.436 52.167" xml:space="preserve"> <path fill="#FFFFFF" d="M26.841,51.682C12.593,51.682,1,40.09,1,25.84C1,11.592,12.593,0,26.841,0s25.841,11.592,25.841,25.84 C52.682,40.09,41.089,51.682,26.841,51.682z M26.841,4.729C15.2,4.729,5.729,14.2,5.729,25.84c0,11.642,9.47,21.112,21.111,21.112 c11.641,0,21.112-9.471,21.112-21.112C47.953,14.2,38.481,4.729,26.841,4.729z"></path> <line fill="none" stroke="#FFFFFF" stroke-width="0.75" stroke-miterlimit="10" x1="36.828" y1="5.991" x2="36.828" y2="31.502"></line> <line fill="none" stroke="#FFFFFF" stroke-width="0.75" stroke-miterlimit="10" x1="14.171" y1="7.308" x2="36.538" y2="19.576"></line> <line fill="none" stroke="#FFFFFF" stroke-width="0.75" stroke-miterlimit="10" x1="5.172" y1="27.315" x2="26.188" y2="13.911"></line> <line fill="none" stroke="#FFFFFF" stroke-width="0.75" stroke-miterlimit="10" x1="16.386" y1="45.028" x2="16.442" y2="20.05"></line> <line fill="none" stroke="#FFFFFF" stroke-width="0.75" stroke-miterlimit="10" x1="39.203" y1="44.639" x2="16.797" y2="31.989"></line> <line fill="none" stroke="#FFFFFF" stroke-width="0.75" stroke-miterlimit="10" x1="48.94" y1="23.772" x2="27.3" y2="37.281"></line> <polygon fill="#68BC45" points="26.73,38.05 16.075,32.004 16.075,19.905 26.73,24.115 "></polygon> <polygon fill="#509737" points="26.73,38.05 37.203,31.553 37.203,19.204 26.73,24.115 "></polygon> <polygon fill="#9CCA3B" points="26.605,24.917 16.075,19.905 26.125,13.442 37.203,19.204 "></polygon> <g> <path fill="#FFFFFF" d="M66.843,32.397c1.051,0.674,2.562,1.186,4.178,1.186c2.399,0,3.801-1.267,3.801-3.1 c0-1.671-0.97-2.669-3.424-3.585c-2.965-1.079-4.798-2.642-4.798-5.176c0-2.83,2.345-4.933,5.876-4.933 c1.833,0,3.208,0.431,3.99,0.89l-0.646,1.914c-0.566-0.351-1.779-0.862-3.424-0.862c-2.481,0-3.423,1.482-3.423,2.722 c0,1.698,1.105,2.534,3.612,3.505c3.072,1.186,4.609,2.668,4.609,5.336c0,2.804-2.048,5.257-6.334,5.257 c-1.753,0-3.667-0.539-4.637-1.187L66.843,32.397z"></path> <path fill="#FFFFFF" d="M80.346,25.739c0-1.375-0.053-2.453-0.107-3.532h2.076l0.107,2.13h0.082c0.727-1.24,1.94-2.399,4.124-2.399 c1.752,0,3.1,1.078,3.666,2.614h0.054c0.404-0.754,0.944-1.293,1.482-1.698c0.782-0.593,1.618-0.916,2.858-0.916 c1.752,0,4.313,1.132,4.313,5.661v7.656h-2.318v-7.359c0-2.534-0.943-4.017-2.831-4.017c-1.374,0-2.398,0.997-2.83,2.129 c-0.107,0.351-0.188,0.755-0.188,1.187v8.06h-2.318v-7.818c0-2.075-0.917-3.558-2.723-3.558c-1.456,0-2.562,1.187-2.939,2.372 c-0.133,0.323-0.188,0.755-0.188,1.16v7.844h-2.318V25.739z"></path> <path fill="#FFFFFF" d="M111.99,32.127c0,1.132,0.054,2.236,0.189,3.127h-2.129l-0.189-1.645h-0.08 c-0.729,1.024-2.129,1.94-3.99,1.94c-2.643,0-3.99-1.86-3.99-3.746c0-3.155,2.803-4.88,7.844-4.853v-0.27 c0-1.051-0.296-3.019-2.965-2.993c-1.24,0-2.507,0.351-3.423,0.971l-0.539-1.59c1.078-0.674,2.668-1.132,4.313-1.132 c3.989,0,4.959,2.723,4.959,5.311V32.127z M109.699,28.596c-2.588-0.055-5.526,0.404-5.526,2.938c0,1.563,1.024,2.265,2.211,2.265 c1.725,0,2.83-1.078,3.208-2.184c0.081-0.269,0.107-0.539,0.107-0.755V28.596z"></path> <path fill="#FFFFFF" d="M115.817,26.277c0-1.537-0.027-2.857-0.107-4.07h2.075l0.107,2.588h0.081 c0.594-1.752,2.049-2.857,3.64-2.857c0.241,0,0.432,0.027,0.646,0.054v2.238c-0.243-0.054-0.485-0.054-0.808-0.054 c-1.672,0-2.859,1.24-3.182,3.02c-0.054,0.323-0.081,0.727-0.081,1.104v6.955h-2.372V26.277z"></path> <path fill="#FFFFFF" d="M128.135,19.08v3.127h3.396v1.806h-3.396v7.036c0,1.618,0.457,2.534,1.778,2.534 c0.647,0,1.024-0.053,1.374-0.161l0.107,1.806c-0.457,0.162-1.186,0.323-2.101,0.323c-1.105,0-1.996-0.377-2.563-0.997 c-0.646-0.729-0.915-1.887-0.915-3.423v-7.118h-2.022v-1.806h2.022v-2.426L128.135,19.08z"></path> <path fill="#FFFFFF" d="M149.374,26.736h-7.035v6.55h7.871v1.969h-10.244V17.085h9.84v1.968h-7.467v5.742h7.035V26.736z"></path> <path fill="#FFFFFF" d="M153.172,25.739c0-1.375-0.025-2.453-0.107-3.532h2.102l0.137,2.157h0.055 c0.646-1.213,2.154-2.426,4.313-2.426c1.805,0,4.609,1.078,4.609,5.553v7.764h-2.371v-7.521c0-2.103-0.783-3.855-3.021-3.855 c-1.535,0-2.748,1.105-3.18,2.426c-0.107,0.297-0.162,0.701-0.162,1.106v7.844h-2.373V25.739z"></path> <path fill="#FFFFFF" d="M179.292,33.34c0,3.02-0.619,4.825-1.859,5.984c-1.295,1.159-3.127,1.563-4.771,1.563 c-1.563,0-3.289-0.377-4.34-1.079l0.594-1.833c0.861,0.566,2.209,1.052,3.826,1.052c2.428,0,4.207-1.268,4.207-4.583v-1.429h-0.055 c-0.701,1.214-2.129,2.185-4.152,2.185c-3.234,0-5.551-2.749-5.551-6.361c0-4.422,2.883-6.902,5.902-6.902 c2.264,0,3.477,1.159,4.07,2.237h0.055l0.08-1.968h2.104c-0.082,0.917-0.109,1.995-0.109,3.558V33.34z M176.92,27.356 c0-0.404-0.027-0.755-0.137-1.052c-0.43-1.401-1.563-2.534-3.314-2.534c-2.264,0-3.881,1.915-3.881,4.933 c0,2.561,1.32,4.69,3.854,4.69c1.484,0,2.805-0.917,3.289-2.427c0.135-0.403,0.189-0.861,0.189-1.267V27.356z"></path> <path fill="#FFFFFF" d="M185.678,18.541c0,0.809-0.566,1.456-1.51,1.456c-0.861,0-1.428-0.647-1.428-1.456s0.594-1.483,1.482-1.483 C185.086,17.058,185.678,17.705,185.678,18.541z M183.038,35.254V22.207h2.371v13.047H183.038z"></path> <path fill="#FFFFFF" d="M189.344,25.739c0-1.375-0.027-2.453-0.107-3.532h2.102l0.135,2.157h0.055 c0.646-1.213,2.156-2.426,4.313-2.426c1.807,0,4.609,1.078,4.609,5.553v7.764h-2.371v-7.521c0-2.103-0.783-3.855-3.02-3.855 c-1.537,0-2.75,1.105-3.182,2.426c-0.107,0.297-0.162,0.701-0.162,1.106v7.844h-2.371V25.739z"></path> <path fill="#FFFFFF" d="M205.624,29.162c0.055,3.208,2.076,4.528,4.475,4.528c1.699,0,2.75-0.296,3.613-0.674l0.43,1.699 c-0.834,0.377-2.291,0.835-4.365,0.835c-4.016,0-6.416-2.668-6.416-6.604c0-3.936,2.318-7.009,6.119-7.009 c4.287,0,5.391,3.72,5.391,6.12c0,0.484-0.025,0.835-0.08,1.104H205.624z M212.579,27.463c0.027-1.482-0.619-3.828-3.289-3.828 c-2.426,0-3.449,2.184-3.639,3.828H212.579z"></path> <path fill="#FFFFFF" d="M217.483,32.855c0.729,0.431,1.969,0.917,3.154,0.917c1.697,0,2.508-0.836,2.508-1.941 c0-1.132-0.676-1.725-2.4-2.372c-2.373-0.862-3.477-2.13-3.477-3.693c0-2.102,1.725-3.828,4.5-3.828 c1.322,0,2.48,0.351,3.182,0.809l-0.566,1.726c-0.512-0.323-1.455-0.782-2.668-0.782c-1.402,0-2.156,0.809-2.156,1.779 c0,1.079,0.754,1.564,2.453,2.238c2.236,0.835,3.424,1.967,3.424,3.908c0,2.318-1.807,3.936-4.854,3.936 c-1.43,0-2.75-0.377-3.666-0.916L217.483,32.855z"></path> </g> </svg> 